<svg xmlns="http://www.w3.org/2000/svg" viewBox="0 0 100 100" id="moon"><path d="M80.414 37.749a2.654 2.654 0 0 0 .388-2.39 2.654 2.654 0 0 0-1.719-1.707L75.92 32.65l-1.93-2.699a2.654 2.654 0 0 0-2.153-1.107h-.001c-.852 0-1.657.413-2.154 1.107l-1.93 2.699-3.164 1.003a2.657 2.657 0 0 0-1.719 1.707 2.652 2.652 0 0 0 .388 2.389l1.97 2.671-.024 3.317a2.655 2.655 0 0 0 1.091 2.162c.69.5 1.584.64 2.395.37l3.148-1.048 3.148 1.049a2.658 2.658 0 0 0 2.395-.37 2.658 2.658 0 0 0 1.091-2.162l-.024-3.318 1.967-2.671zm-4.47.979a2.67 2.67 0 0 0-.518 1.591l.022 2.927-2.777-.925a2.648 2.648 0 0 0-1.674.001l-2.777.925.022-2.928a2.666 2.666 0 0 0-.517-1.59l-1.738-2.356 2.79-.884a2.657 2.657 0 0 0 1.354-.984l1.703-2.381 1.703 2.38c.331.463.811.812 1.354.985l2.791.884-1.738 2.355zm-.604 14.446c-.86-.015-1.427.633-1.957 1.192-.969 1.022-1.963 1.93-3.121 2.744-5.396 3.509-12.262 3.908-17.889.647-6.09-3.529-9.416-10.75-8.061-17.672.668-3.415 2.342-6.574 4.859-8.987a17.047 17.047 0 0 1 4.914-3.285c1.209-.532 2.981-.74 3.095-2.385.216-3.106-5.394-2.646-7.313-2.585a27.575 27.575 0 0 0-10.806 2.602C26.942 31.111 20.76 45.464 24.759 58.192 28.592 70.39 40.911 78.476 53.63 77.056a27.438 27.438 0 0 0 18.822-10.727c2.169-2.876 4.489-6.961 4.832-10.633.115-1.243-.536-2.496-1.944-2.522zm-2.274 6.047a24.569 24.569 0 0 1-2.449 4.518c-1.912 2.808-4.461 5.189-7.364 6.949-4.928 2.987-10.857 4.158-16.548 3.191C34.939 71.88 26.223 61.309 26.55 49.37c.36-13.122 11.518-23.809 24.68-23.518l.08.006a19.58 19.58 0 0 0-2.705 1.765c-2.24 1.751-4.108 3.974-5.401 6.512-2.558 5.022-2.923 11.047-.851 16.303 4.6 11.675 18.99 16.066 29.43 9.278a31.714 31.714 0 0 0 1.528-1.148c-.08.217-.157.437-.245.653zm1.236-3.643c.003-.07.023-.089 0 0zM21.854 33.139h-2.913v2.913c0 1.944-3.016 1.94-3.016 0v-2.913h-2.913c-1.944 0-1.941-3.016 0-3.016h2.913V27.21c0-1.944 3.016-1.94 3.016 0v2.913h2.913c1.943 0 1.94 3.016 0 3.016zm65.135 37.552H85.41v1.58c0 1.944-3.016 1.94-3.016 0v-1.58h-1.58c-1.944 0-1.941-3.016 0-3.016h1.58v-1.58c0-1.944 3.016-1.94 3.016 0v1.58h1.579c1.943 0 1.94 3.016 0 3.016z"></path></svg>