<svg id="SvgjsSvg1011" width="288" height="288" xmlns="http://www.w3.org/2000/svg" version="1.1" xmlns:xlink="http://www.w3.org/1999/xlink" xmlns:svgjs="http://svgjs.com/svgjs"><defs id="SvgjsDefs1012"></defs><g id="SvgjsG1013"><svg xmlns="http://www.w3.org/2000/svg" enable-background="new 0 0 1024 1024" viewBox="0 0 1024 1024" width="288" height="288"><path d="M541.4 969c0-27.9 0-55.9 0-83.8 0-4 0-8.1 0-12.1 0-15.7-13.8-30.7-30-30-16.3.7-30 13.2-30 30 0 27.9 0 55.9 0 83.8 0 4 0 8.1 0 12.1 0 15.7 13.8 30.7 30 30C527.6 998.3 541.4 985.8 541.4 969L541.4 969zM541.4 150.9c0-27.9 0-55.9 0-83.8 0-4 0-8.1 0-12.1 0-15.7-13.8-30.7-30-30-16.3.7-30 13.2-30 30 0 27.9 0 55.9 0 83.8 0 4 0 8.1 0 12.1 0 15.7 13.8 30.7 30 30C527.6 180.1 541.4 167.7 541.4 150.9L541.4 150.9zM756.5 370.6C728.7 323 686.8 283 637.1 258.9c-55-26.6-115.8-34.8-175.9-24.6-112.9 19.3-206.9 113.2-226.6 226-10.5 60.4-2.5 121.5 24.3 176.7 23.8 49.2 63.4 91.1 110.5 118.8 50 29.4 109.7 43.1 167.5 37.5 59.8-5.8 115.1-29.2 160.7-68.4 42.6-36.6 73.8-87.2 87.8-141.5 14.5-56.2 11.7-118.1-9.7-172.2C770.1 397.1 763.9 383.6 756.5 370.6c-7.8-13.6-27.5-19.5-41-10.8-13.7 8.9-19.1 26.5-10.8 41 5.3 9.2 10 18.7 14.2 28.5-1-2.4-2-4.8-3-7.2 8.6 20.6 14.4 42.1 17.4 64.2-.4-2.7-.7-5.3-1.1-8 2.9 22.5 2.9 45.2-.1 67.7.4-2.7.7-5.3 1.1-8-3 21.7-8.8 42.9-17.2 63.2 1-2.4 2-4.8 3-7.2-6.5 15.4-14.4 30.1-23.7 43.9-2.1 3.1-4.3 6.2-6.5 9.2-.6.9-1.3 1.7-1.9 2.6 3.1-3.9 3.6-4.7 1.7-2.3-1 1.3-2 2.5-3 3.8-5.1 6.2-10.5 12.2-16.2 17.8-5.7 5.7-11.6 11.1-17.8 16.2-1.2 1-2.5 2-3.8 3-2.4 1.9-1.7 1.3 2.3-1.7-.9.7-1.7 1.3-2.6 1.9-3 2.2-6.1 4.4-9.2 6.5-13.7 9.3-28.3 17.1-43.6 23.6 2.4-1 4.8-2 7.2-3-20.6 8.6-42.1 14.4-64.2 17.4 2.7-.4 5.3-.7 8-1.1-22.5 2.9-45.2 2.9-67.7-.1 2.7.4 5.3.7 8 1.1-21.7-3-42.9-8.8-63.2-17.2 2.4 1 4.8 2 7.2 3-15.4-6.5-30.1-14.4-43.9-23.7-3.1-2.1-6.2-4.3-9.2-6.5-.9-.6-1.7-1.3-2.6-1.9 3.9 3.1 4.7 3.6 2.3 1.7-1.3-1-2.5-2-3.8-3-6.2-5.1-12.2-10.5-17.8-16.2-5.7-5.7-11.1-11.6-16.2-17.8-1-1.2-2-2.5-3-3.8-1.9-2.4-1.3-1.7 1.7 2.3-.7-.9-1.3-1.7-1.9-2.6-2.2-3-4.4-6.1-6.5-9.2-9.3-13.8-17.3-28.5-23.7-43.9 1 2.4 2 4.8 3 7.2-8.4-20.3-14.2-41.4-17.2-63.2.4 2.7.7 5.3 1.1 8-3-22.5-3-45.2-.1-67.7-.4 2.7-.7 5.3-1.1 8 3-22.1 8.8-43.6 17.4-64.2-1 2.4-2 4.8-3 7.2 6.5-15.2 14.3-29.9 23.6-43.6 2.1-3.1 4.3-6.2 6.5-9.2.6-.9 1.3-1.7 1.9-2.6-3.1 3.9-3.6 4.7-1.7 2.3 1-1.3 2-2.5 3-3.8 5.1-6.2 10.5-12.2 16.2-17.8 5.7-5.7 11.6-11.1 17.8-16.2 1.2-1 2.5-2 3.8-3 2.4-1.9 1.7-1.3-2.3 1.7.9-.7 1.7-1.3 2.6-1.9 3-2.2 6.1-4.4 9.2-6.5 13.8-9.3 28.5-17.3 43.9-23.7-2.4 1-4.8 2-7.2 3 20.3-8.4 41.4-14.2 63.2-17.2-2.7.4-5.3.7-8 1.1 22.5-3 45.2-3 67.7-.1-2.7-.4-5.3-.7-8-1.1 22.1 3 43.6 8.8 64.2 17.4-2.4-1-4.8-2-7.2-3 12.8 5.4 25.1 11.8 36.8 19.2 5.5 3.4 10.8 7.1 16 10.9.9.6 1.7 1.3 2.6 1.9-1.2-.9-2.3-1.8-3.5-2.7 1.3.9 2.5 2 3.8 3 2.7 2.2 5.4 4.5 8 6.8 9.8 8.7 19 18.2 27.3 28.3 1 1.2 2 2.5 3 3.8 3.8 4.7-4.3-5.9-.7-1 1.9 2.6 3.8 5.2 5.7 7.8 4 5.7 7.7 11.7 11.3 17.7 7.9 13.6 27.4 19.5 41 10.8C759.4 402.9 765 385.2 756.5 370.6zM969 482.6c-27.9 0-55.9 0-83.8 0-4 0-8.1 0-12.1 0-15.7 0-30.7 13.8-30 30 .7 16.3 13.2 30 30 30 27.9 0 55.9 0 83.8 0 4 0 8.1 0 12.1 0 15.7 0 30.7-13.8 30-30C998.3 496.4 985.8 482.6 969 482.6L969 482.6zM150.9 482.6c-27.9 0-55.9 0-83.8 0-4 0-8.1 0-12.1 0-15.7 0-30.7 13.8-30 30 .7 16.3 13.2 30 30 30 27.9 0 55.9 0 83.8 0 4 0 8.1 0 12.1 0 15.7 0 30.7-13.8 30-30C180.1 496.4 167.7 482.6 150.9 482.6L150.9 482.6zM766.4 892.6c-14.1-24.4-28.1-48.7-42.2-73.1-2-3.5-4-6.9-6-10.4-7.8-13.6-27.5-19.5-41-10.8-13.7 8.8-19.2 26.5-10.8 41 14.1 24.4 28.1 48.7 42.2 73.1 2 3.5 4 6.9 6 10.4 7.8 13.6 27.5 19.5 41 10.8C769.4 924.8 774.8 907.2 766.4 892.6L766.4 892.6zM357.6 184.6c-14.1-24.4-28.1-48.7-42.2-73.1-2-3.5-4-6.9-6-10.4-7.8-13.6-27.5-19.5-41-10.8-13.7 8.8-19.2 26.5-10.8 41 14.1 24.4 28.1 48.7 42.2 73.1 2 3.5 4 6.9 6 10.4 7.8 13.6 27.5 19.5 41 10.8C360.6 216.8 366 199.1 357.6 184.6L357.6 184.6zM892.6 257.6c-24.4 14.1-48.7 28.1-73.1 42.2-3.5 2-6.9 4-10.4 6-13.6 7.8-19.5 27.5-10.8 41 8.8 13.7 26.5 19.2 41 10.8 24.4-14.1 48.7-28.1 73.1-42.2 3.5-2 6.9-4 10.4-6 13.6-7.8 19.5-27.5 10.8-41C924.8 254.6 907.2 249.2 892.6 257.6L892.6 257.6zM184.6 666.4c-24.4 14.1-48.7 28.1-73.1 42.2-3.5 2-6.9 4-10.4 6-13.6 7.8-19.5 27.5-10.8 41 8.8 13.7 26.5 19.2 41 10.8 24.4-14.1 48.7-28.1 73.1-42.2 3.5-2 6.9-4 10.4-6 13.6-7.8 19.5-27.5 10.8-41C216.8 663.4 199.1 658 184.6 666.4L184.6 666.4zM305.8 809.1c-14.1 24.4-28.1 48.7-42.2 73.1-2 3.5-4 6.9-6 10.4-7.9 13.6-3.6 33.5 10.8 41 14.3 7.6 32.7 3.8 41-10.8 14.1-24.4 28.1-48.7 42.2-73.1 2-3.5 4-6.9 6-10.4 7.9-13.6 3.6-33.5-10.8-41C332.5 790.8 314.2 794.6 305.8 809.1L305.8 809.1zM714.6 101.1c-14.1 24.4-28.1 48.7-42.2 73.1-2 3.5-4 6.9-6 10.4-7.9 13.6-3.6 33.5 10.8 41 14.3 7.6 32.7 3.8 41-10.8 14.1-24.4 28.1-48.7 42.2-73.1 2-3.5 4-6.9 6-10.4 7.9-13.6 3.6-33.5-10.8-41C741.3 82.8 723 86.6 714.6 101.1L714.6 101.1zM214.9 305.8c-24.4-14.1-48.7-28.1-73.1-42.2-3.5-2-6.9-4-10.4-6-13.6-7.9-33.5-3.6-41 10.8-7.6 14.3-3.8 32.7 10.8 41 24.4 14.1 48.7 28.1 73.1 42.2 3.5 2 6.9 4 10.4 6 13.6 7.9 33.5 3.6 41-10.8C233.2 332.5 229.4 314.2 214.9 305.8L214.9 305.8zM922.9 714.6c-24.4-14.1-48.7-28.1-73.1-42.2-3.5-2-6.9-4-10.4-6-13.6-7.9-33.5-3.6-41 10.8-7.6 14.3-3.8 32.7 10.8 41 24.4 14.1 48.7 28.1 73.1 42.2 3.5 2 6.9 4 10.4 6 13.6 7.9 33.5 3.6 41-10.8C941.2 741.3 937.4 723 922.9 714.6L922.9 714.6z" fill="#ffffff" class="color000 svgShape"></path></svg></g></svg>